<svg xmlns="http://www.w3.org/2000/svg" width="40" height="40" viewBox="0 0 60 60" fill="none">
    <g clip-path="url(#clip0_26_31)">
        <path d="M46.5965 25.5435C46.5553 25.4506 46.1247 24.7129 45.5753 24.2529C45.407 24.1117 44.973 23.8729 44.973 23.8729C44.4965 23.6352 43.98 23.5141 43.4388 23.5141H37.7918C37.1423 23.5141 36.6154 24.0412 36.6154 24.6905C36.6154 25.34 37.1425 25.867 37.7918 25.867H43.4388C43.8729 25.867 44.1812 26.1081 44.3482 26.3376C44.4859 26.5258 44.5565 26.8188 44.5565 26.9859C44.5565 27.6353 45.0835 28.1623 45.7329 28.1623C46.3824 28.1623 46.9094 27.6353 46.9094 26.9859C46.9094 26.4811 46.8034 25.9941 46.5965 25.5435Z" fill="white" stroke="white" stroke-width="1.5625"/>
        <path d="M46.5965 25.5435C46.5553 25.4506 46.1247 24.7129 45.5753 24.2529C45.407 24.1117 44.973 23.8729 44.973 23.8729C44.4965 23.6352 43.98 23.5141 43.4388 23.5141H37.7918C37.1423 23.5141 36.6154 24.0412 36.6154 24.6905C36.6154 25.34 37.1425 25.867 37.7918 25.867H43.4388C43.8729 25.867 44.1812 26.1081 44.3482 26.3376C44.4859 26.5258 44.5565 26.8188 44.5565 26.9859C44.5565 27.6353 45.0835 28.1623 45.7329 28.1623C46.3824 28.1623 46.9094 27.6353 46.9094 26.9859C46.9094 26.4811 46.8033 25.9941 46.5965 25.5435Z" fill="white" stroke="white" stroke-width="1.5625"/>
        <path d="M59.9493 33.9741L58.2352 28.307V27.3494C58.2352 22.1859 54.0341 17.9848 48.8718 17.9848H27.3354C28.2896 17.4565 29.1037 16.6753 29.666 15.7025C29.8766 15.3378 29.8766 14.8883 29.6649 14.5237C28.5767 12.6436 26.5532 11.4767 24.3837 11.4767C23.0413 11.4767 21.7649 11.9107 20.7202 12.6979C20.6602 12.6426 20.599 12.5896 20.5355 12.5391C21.8261 11.4026 22.6413 9.73912 22.6413 7.88966C22.6413 7.23904 22.1144 6.71321 21.4649 6.71321C20.8154 6.71321 20.2884 7.23904 20.2884 7.88966C20.2884 10.0085 18.5638 11.7332 16.4449 11.7332H13.3779C11.2591 11.7332 9.53436 10.0085 9.53436 7.88966C9.53436 7.23904 9.00854 6.71321 8.35792 6.71321C7.70846 6.71321 7.18147 7.23904 7.18147 7.88966C7.18147 9.74029 7.99674 11.4038 9.28733 12.5391C9.22382 12.5897 9.16265 12.6414 9.10264 12.6967C8.05792 11.9108 6.78151 11.4767 5.44029 11.4767C3.26974 11.4767 1.24497 12.6449 0.15794 14.5237C-0.0526466 14.8883 -0.0526466 15.3366 0.15794 15.7013C1.24497 17.5825 3.26845 18.7506 5.44029 18.7506C6.42854 18.7506 7.38971 18.5106 8.24846 18.0647L9.02026 23.6623C8.09436 24.2376 7.47678 25.2634 7.47678 26.4305V27.447C7.47678 29.2423 8.93682 30.7022 10.732 30.7022H11.3379V31.5929C11.3379 34.4505 12.6755 37.1022 14.9437 38.7987L16.0426 52.2069C16.0921 52.8174 16.6027 53.2869 17.2144 53.2869H25.5367C26.1496 53.2869 26.659 52.8174 26.7096 52.2069L27.6603 40.5952H31.2967C31.4073 40.8035 31.5273 41.0059 31.6532 41.2023V44.3552C31.6532 45.0058 32.1802 45.5316 32.8296 45.5316C33.4803 45.5316 34.0061 45.0058 34.0061 44.3552V43.6163C34.552 43.9869 35.1402 44.294 35.7613 44.528V46.4527C35.7613 47.1022 36.2872 47.6292 36.9378 47.6292C37.5872 47.6292 38.1142 47.1021 38.1142 46.4527V45.0481C38.3248 45.0634 39.546 45.0423 39.9366 44.987L39.8343 52.0939C39.8308 52.4092 39.952 52.7128 40.1731 52.9363C40.3942 53.1609 40.6966 53.2869 41.0108 53.2869H49.5566C50.1342 53.2869 50.626 52.8681 50.7178 52.2975L52.4237 41.7199C52.4342 41.6575 52.4389 41.5952 52.4389 41.5328V26.9859C52.4389 25.68 52.1648 24.4189 51.6236 23.2388C51.5071 22.9834 50.9284 21.9882 50.7707 21.767C50.4072 21.2588 49.9931 20.7918 49.5366 20.3706C53.0919 20.7059 55.8825 23.7071 55.8825 27.3494V28.307L54.1684 33.9741C54.0601 34.3306 54.1272 34.7165 54.3495 35.0153C54.5718 35.3142 54.9213 35.4907 55.2942 35.4907H58.8235C59.1952 35.4907 59.5459 35.3142 59.7682 35.0153C59.9904 34.7164 60.0574 34.3306 59.9493 33.9741ZM7.9167 15.4589C7.23784 16.0601 6.35787 16.3977 5.44029 16.3977C4.35092 16.3977 3.32142 15.9189 2.61677 15.113C3.32142 14.3083 4.35092 13.8294 5.44029 13.8294C6.38494 13.8294 7.27791 14.1801 7.96381 14.807C7.92842 15.0224 7.91202 15.2401 7.9167 15.4589ZM24.3836 13.8296C25.4718 13.8296 26.5012 14.3084 27.2059 15.1131C26.5013 15.919 25.473 16.3978 24.3836 16.3978C23.4659 16.3978 22.5859 16.0602 21.906 15.4602C21.9107 15.2403 21.8943 15.0214 21.8589 14.8073C22.5448 14.1801 23.4388 13.8296 24.3836 13.8296ZM10.5907 14.5354C10.8436 14.2459 11.1942 14.086 11.5789 14.086H18.2436C18.6284 14.086 18.9789 14.2459 19.2319 14.5354C19.4836 14.8248 19.5942 15.1942 19.5413 15.5741L19.3213 17.1729C19.1119 16.9117 18.793 16.7435 18.433 16.7435C17.8071 16.7435 17.2989 17.2506 17.2989 17.8765C17.2989 18.5024 17.8071 19.0095 18.433 19.0095C18.6812 19.0095 18.9107 18.9283 19.0977 18.793V18.7942L18.493 23.1754H11.3294L10.7248 18.793V18.7919C10.9118 18.9284 11.1412 19.0095 11.3906 19.0095C12.0165 19.0095 12.5236 18.5024 12.5236 17.8765C12.5236 17.2506 12.0165 16.7435 11.3906 16.7435C11.0306 16.7435 10.7106 16.9118 10.5023 17.1729L10.2813 15.5742C10.2284 15.1942 10.3389 14.8248 10.5907 14.5354ZM10.732 28.3495C10.2343 28.3495 9.82968 27.9448 9.82968 27.4471V26.4306C9.82968 25.9329 10.2343 25.5283 10.732 25.5283H19.092C19.5885 25.5283 19.9931 25.9329 19.9931 26.4306V27.4471C19.9931 27.9448 19.5885 28.3495 19.092 28.3495H10.732ZM18.2988 50.934L17.413 40.1059C18.0259 40.3164 18.6612 40.4612 19.3095 40.5352L20.1612 50.934H18.2988ZM40.7471 42.3834C40.1106 42.6057 39.4388 42.7187 38.7507 42.7187C36.9354 42.7187 35.2625 41.9223 34.126 40.5951H40.5118C40.9458 41.0516 41.4282 41.4598 41.9471 41.8115C41.5694 42.0446 41.1671 42.2376 40.7471 42.3834ZM44.0752 50.934H42.2047L42.2999 44.2893C42.9788 43.9741 43.6153 43.5693 44.1894 43.0858L44.0752 50.934ZM50.0859 26.9859V41.4387L48.5541 50.934H46.4294L46.5576 42.0129C46.5658 41.4434 46.1647 40.9505 45.6046 40.8411C45.2306 40.7694 44.8529 40.6576 44.4823 40.5105C43.5023 40.1199 42.6235 39.4823 41.9399 38.6647C41.7165 38.3964 41.3859 38.2423 41.0376 38.2423H26.5766C25.9637 38.2423 25.4543 38.7118 25.4037 39.3223L24.4531 50.934H22.5237L21.5719 39.3223C21.5213 38.7118 21.0118 38.2423 20.399 38.2423H20.3919C20.3742 38.2412 20.3555 38.2412 20.3378 38.2412C19.0449 38.2412 17.7919 37.8694 16.7142 37.167C14.8213 35.9341 13.6907 33.8506 13.6907 31.593V30.7024H19.0918C20.886 30.7024 22.3459 29.2423 22.3459 27.4471V26.4306C22.3459 25.2636 21.7282 24.2377 20.8024 23.6624L21.2671 20.286C21.3754 20.3201 43.4388 20.3378 43.4388 20.3378C44.7058 20.3378 45.9305 20.8001 46.3917 21.0307C46.401 21.0354 47.7058 21.6084 48.854 23.1319C49.6988 24.2529 50.0859 26.02 50.0859 26.9859ZM56.4999 33.4117L57.0588 31.5647L57.6177 33.4117H56.4999Z" fill="white" stroke="white" stroke-width="1.5625"/>
        <path d="M46.5965 25.5435C46.5553 25.4506 46.1247 24.7129 45.5753 24.2529C45.407 24.1117 44.973 23.8729 44.973 23.8729C44.4965 23.6352 43.98 23.5141 43.4388 23.5141H37.7918C37.1423 23.5141 36.6154 24.0412 36.6154 24.6905C36.6154 25.34 37.1425 25.867 37.7918 25.867H43.4388C43.8729 25.867 44.1812 26.1081 44.3482 26.3376C44.4859 26.5258 44.5565 26.8188 44.5565 26.9859C44.5565 27.6353 45.0835 28.1623 45.7329 28.1623C46.3824 28.1623 46.9094 27.6353 46.9094 26.9859C46.9094 26.4811 46.8033 25.9941 46.5965 25.5435Z" fill="white" stroke="white" stroke-width="1.5625"/>
    </g>
    <defs>
        <clipPath id="clip0_26_31">
            <rect width="60" height="60" fill="white"/>
        </clipPath>
    </defs>
</svg>